<?xml version="1.0" encoding="UTF-8" standalone="no"?>
<!-- Created with Inkscape (http://www.inkscape.org/) -->

<svg
   width="80.594666mm"
   height="35.097027mm"
   viewBox="0 0 80.594666 35.097027"
   version="1.1"
   id="svg1"
   sodipodi:docname="top1.svg"
   inkscape:version="1.4 (e7c3feb1, 2024-10-09)"
   xmlns:inkscape="http://www.inkscape.org/namespaces/inkscape"
   xmlns:sodipodi="http://sodipodi.sourceforge.net/DTD/sodipodi-0.dtd"
   xmlns="http://www.w3.org/2000/svg"
   xmlns:svg="http://www.w3.org/2000/svg">
  <sodipodi:namedview
     id="namedview1"
     pagecolor="#ffffff"
     bordercolor="#000000"
     borderopacity="0.25"
     inkscape:showpageshadow="2"
     inkscape:pageopacity="0.0"
     inkscape:pagecheckerboard="0"
     inkscape:deskcolor="#d1d1d1"
     inkscape:document-units="mm"
     inkscape:zoom="1.7054561"
     inkscape:cx="219.003"
     inkscape:cy="29.610847"
     inkscape:window-width="1376"
     inkscape:window-height="910"
     inkscape:window-x="0"
     inkscape:window-y="35"
     inkscape:window-maximized="0"
     inkscape:current-layer="svg1" />
  <defs
     id="defs1" />
  <path
     d="m 62.332345,12.456932 -0.563678,-0.08791 -0.553789,-0.137447 -0.539385,-0.185913 -0.520897,-0.232766 -0.498324,-0.277902 -0.471667,-0.320779 -0.44157,-0.361294 -0.407924,-0.398906 -0.371056,-0.433296 -0.331177,-0.4644589 -0.288933,-0.491863 -0.244326,-0.515504 -0.197782,-0.535063 -0.149733,-0.550431 -0.100396,-0.561499 -0.05042,-0.568161 v -0.57042 l 0.05042,-0.568161 0.100396,-0.561499 0.149733,-0.550431 0.197782,-0.535062 0.244326,-0.515505 0.288933,-0.491863 0.331177,-0.464459 0.371056,-0.433295 0.407924,-0.398906 0.44157,-0.361294 0.471667,-0.320779 0.498324,-0.277903 0.520897,-0.232766 0.539385,-0.185805 0.553789,-0.137447 0.563678,-0.08801 0.569375,-0.03783 0.570343,0.01258 0.567117,0.06297 0.559272,0.112838 0.547124,0.16184 0.530671,0.209447 0.51004,0.255657 0.48554,0.29961 0.45705,0.341413 0.42512,0.380423 0.38986,0.41653 0.3515,0.449306 0.31043,0.478645 0.2669,0.504113 0.22122,0.525821 0.17391,0.543231 0.12523,0.556555 0.0755,0.565369 0.0253,0.569881 -0.0253,0.569881 -0.0755,0.565368 -0.12523,0.556556 -0.17391,0.54323 -0.22122,0.525821 -0.2669,0.504221 -0.31043,0.478538 -0.3515,0.4493059 -0.38986,0.41653 -0.42512,0.380423 -0.45705,0.341412 -0.48554,0.29961 -0.51004,0.255657 -0.530671,0.209447 -0.547124,0.161841 -0.559272,0.112837 -0.567117,0.06297 -0.570343,0.01258 z"
     id="path7-0"
     style="fill:none;stroke:#000000;stroke-width:0.107477;stroke-dasharray:none;stroke-opacity:1" />
  <path
     d="m 50.832345,23.95693 -0.563678,-0.08791 -0.553789,-0.137447 -0.539385,-0.185913 -0.520897,-0.232766 -0.498324,-0.277902 -0.471667,-0.320779 -0.44157,-0.361294 -0.407924,-0.398906 -0.371056,-0.433296 -0.331177,-0.464459 -0.288933,-0.491863 -0.244326,-0.515504 -0.197782,-0.535063 -0.149733,-0.550432 -0.100396,-0.561499 -0.05042,-0.568161 v -0.57042 l 0.05042,-0.568161 0.100396,-0.561499 0.149733,-0.550431 0.197782,-0.535062 0.244326,-0.515505 0.288933,-0.491863 0.331177,-0.464459 0.371056,-0.433295 0.407924,-0.398906 0.44157,-0.361294 0.471667,-0.320779 0.498324,-0.277903 0.520897,-0.232766 0.539385,-0.185805 0.553789,-0.137447 0.563678,-0.08801 0.569375,-0.03783 0.570343,0.01258 0.567117,0.06297 0.559272,0.112838 0.547124,0.16184 0.530671,0.209447 0.51004,0.255657 0.48554,0.29961 0.45705,0.341413 0.42512,0.380423 0.38986,0.41653 0.3515,0.449306 0.31043,0.478645 0.2669,0.504113 0.22122,0.525821 0.17391,0.543231 0.12523,0.556555 0.0755,0.565369 0.0253,0.569881 -0.0253,0.569881 -0.0755,0.565368 -0.12523,0.556556 -0.17391,0.543231 -0.22122,0.525821 -0.2669,0.504221 -0.31043,0.478538 -0.3515,0.449306 -0.38986,0.41653 -0.42512,0.380423 -0.45705,0.341412 -0.48554,0.29961 -0.51004,0.255657 -0.530671,0.209447 -0.547124,0.161841 -0.559272,0.112837 -0.567117,0.06297 -0.570343,0.01258 z"
     id="path7-0-1"
     style="fill:none;stroke:#000000;stroke-width:0.107477;stroke-dasharray:none;stroke-opacity:1" />
  <path
     d="m 73.832345,23.95693 -0.563678,-0.08791 -0.553789,-0.137447 -0.539385,-0.185913 -0.520897,-0.232766 -0.498324,-0.277902 -0.471667,-0.320779 -0.44157,-0.361294 -0.407924,-0.398906 -0.371056,-0.433296 -0.331177,-0.464459 -0.288933,-0.491863 -0.244326,-0.515504 -0.197782,-0.535063 -0.149733,-0.550432 -0.100396,-0.561499 -0.05042,-0.568161 v -0.57042 l 0.05042,-0.568161 0.100396,-0.561499 0.149733,-0.550431 0.197782,-0.535062 0.244326,-0.515505 0.288933,-0.491863 0.331177,-0.464459 0.371056,-0.433295 0.407924,-0.398906 0.44157,-0.361294 0.471667,-0.320779 0.498324,-0.277903 0.520897,-0.232766 0.539385,-0.185805 0.553789,-0.137447 0.563678,-0.08801 0.569375,-0.03783 0.570343,0.01258 0.567117,0.06297 0.559272,0.112838 0.547124,0.16184 0.530671,0.209447 0.51004,0.255657 0.48554,0.29961 0.45705,0.341413 0.42512,0.380423 0.38986,0.41653 0.3515,0.449306 0.31043,0.478645 0.2669,0.504113 0.22122,0.525821 0.17391,0.543231 0.12523,0.556555 0.0755,0.565369 0.0253,0.569881 -0.0253,0.569881 -0.0755,0.565368 -0.12523,0.556556 -0.17391,0.543231 -0.22122,0.525821 -0.2669,0.504221 -0.31043,0.478538 -0.3515,0.449306 -0.38986,0.41653 -0.42512,0.380423 -0.45705,0.341412 -0.48554,0.29961 -0.51004,0.255657 -0.530671,0.209447 -0.547124,0.161841 -0.559272,0.112837 -0.567117,0.06297 -0.570343,0.01258 z"
     id="path7-0-10"
     style="fill:none;stroke:#000000;stroke-width:0.107477;stroke-dasharray:none;stroke-opacity:1" />
  <path
     d="m 62.332345,35.45689 -0.563678,-0.08791 -0.553789,-0.137447 -0.539385,-0.185913 -0.520897,-0.232766 -0.498324,-0.277902 -0.471667,-0.320779 -0.44157,-0.361294 -0.407924,-0.398906 -0.371056,-0.433296 -0.331177,-0.464459 -0.288933,-0.491863 -0.244326,-0.515504 -0.197782,-0.535063 -0.149733,-0.550432 -0.100396,-0.561499 -0.05042,-0.568161 v -0.57042 l 0.05042,-0.568161 0.100396,-0.561499 0.149733,-0.550431 0.197782,-0.535062 0.244326,-0.515505 0.288933,-0.491863 0.331177,-0.464459 0.371056,-0.433295 0.407924,-0.398906 0.44157,-0.361294 0.471667,-0.320779 0.498324,-0.277903 0.520897,-0.232766 0.539385,-0.185805 0.553789,-0.137447 0.563678,-0.08801 0.569375,-0.03783 0.570343,0.01258 0.567117,0.06297 0.559272,0.112838 0.547124,0.16184 0.530671,0.209447 0.51004,0.255657 0.48554,0.29961 0.45705,0.341413 0.42512,0.380423 0.38986,0.41653 0.3515,0.449306 0.31043,0.478645 0.2669,0.504113 0.22122,0.525821 0.17391,0.543231 0.12523,0.556555 0.0755,0.565369 0.0253,0.569881 -0.0253,0.569881 -0.0755,0.565368 -0.12523,0.556556 -0.17391,0.543231 -0.22122,0.525821 -0.2669,0.504221 -0.31043,0.478538 -0.3515,0.449306 -0.38986,0.41653 -0.42512,0.380423 -0.45705,0.341412 -0.48554,0.29961 -0.51004,0.255657 -0.530671,0.209447 -0.547124,0.161841 -0.559272,0.112837 -0.567117,0.06297 -0.570343,0.01258 z"
     id="path7-0-5"
     style="fill:none;stroke:#000000;stroke-width:0.107477;stroke-dasharray:none;stroke-opacity:1" />
  <path
     d="m 16.123195,31.696433 -0.85237,-0.04878 -0.848143,-0.09735 -0.841235,-0.145626 -0.831647,-0.19348 -0.819071,-0.240617 -0.804122,-0.287024 -0.78639,-0.332403 -0.7661839,-0.376854 -0.743297,-0.419964 -0.718246,-0.461735 -0.690721,-0.502059 -0.660926,-0.540622 -0.628967,-0.577564 -0.594948,-0.612517 -0.559071,-0.645417 -0.521339,-0.676357 -0.481957,-0.705029 -0.440824,-0.73143 -0.398453,-0.755349 -0.354638,-0.776924 -0.309691,-0.79589 -0.263814,-0.812288 -0.217113,-0.825996 -0.169484,-0.837041 -0.121546,-0.845394 -0.07299,-0.850976 -0.02443,-0.853738 0.02443,-0.853759 0.07299,-0.850954 0.121546,-0.845395 0.169484,-0.837041 0.217113,-0.826006 0.263814,-0.812288 0.309691,-0.795901 0.354638,-0.776903 0.398453,-0.7553687 0.440824,-0.7314308 0.481957,-0.705029 0.521339,-0.676357 0.559071,-0.645416 0.594948,-0.612507 L 6.7608431,5.4460991 7.4217691,4.9054568 8.1124901,4.4035004 8.8307361,3.9416633 9.5740331,3.5216989 10.340217,3.1448551 11.126607,2.8124418 11.930729,2.5254179 12.7498,2.284815 13.581447,2.0913241 14.422682,1.945698 15.270825,1.848339 16.123195,1.799557 h 0.853708 l 0.85237,0.048782 0.848143,0.097359 0.841235,0.1456261 0.831545,0.1934909 0.819173,0.2406029 0.804019,0.2870239 0.78639,0.3324133 0.766184,0.3768438 0.743401,0.4199644 0.718142,0.4618371 0.690721,0.5019564 0.660927,0.5406423 0.628967,0.5775544 0.59505,0.612507 0.559072,0.645416 0.521338,0.676357 0.481855,0.705029 0.440824,0.7314308 0.398452,0.7553687 0.354639,0.776903 0.309793,0.795901 0.263814,0.812288 0.21701,0.826006 0.169484,0.837041 0.121546,0.845395 0.0731,0.850954 0.02433,0.853759 -0.02433,0.853738 -0.0731,0.850976 -0.121546,0.845394 -0.169484,0.837041 -0.21701,0.825996 -0.263814,0.812288 -0.309793,0.79589 -0.354639,0.776924 -0.398452,0.755349 -0.440824,0.73143 -0.481855,0.705029 -0.521338,0.676357 -0.559072,0.645417 -0.59505,0.612517 -0.628967,0.577564 -0.660927,0.540622 -0.690721,0.502059 -0.718142,0.461735 -0.743401,0.419964 -0.766184,0.376854 -0.78639,0.332403 -0.804019,0.287024 -0.819173,0.240613 -0.831545,0.193481 -0.841235,0.145626 -0.848143,0.09735 -0.85237,0.04878 z"
     id="path3-9"
     style="fill:none;stroke:#000000;stroke-width:0.103114;stroke-dasharray:none;stroke-opacity:1" />
</svg>
