<?xml version="1.0" encoding="UTF-8" standalone="no"?>
<!-- Created with Inkscape (http://www.inkscape.org/) -->

<svg
   width="210mm"
   height="297mm"
   viewBox="0 0 210 297"
   version="1.1"
   id="svg1"
   inkscape:export-filename="Stege-alle.svg"
   inkscape:export-xdpi="96"
   inkscape:export-ydpi="96"
   inkscape:version="1.4 (e7c3feb1, 2024-10-09)"
   sodipodi:docname="Stege-alle.svg"
   xmlns:inkscape="http://www.inkscape.org/namespaces/inkscape"
   xmlns:sodipodi="http://sodipodi.sourceforge.net/DTD/sodipodi-0.dtd"
   xmlns="http://www.w3.org/2000/svg"
   xmlns:svg="http://www.w3.org/2000/svg">
  <sodipodi:namedview
     id="namedview1"
     pagecolor="#ffffff"
     bordercolor="#000000"
     borderopacity="0.25"
     inkscape:showpageshadow="2"
     inkscape:pageopacity="0.0"
     inkscape:pagecheckerboard="0"
     inkscape:deskcolor="#d1d1d1"
     inkscape:document-units="mm"
     inkscape:zoom="1.5502714"
     inkscape:cx="250.60128"
     inkscape:cy="374.45056"
     inkscape:window-width="1408"
     inkscape:window-height="826"
     inkscape:window-x="0"
     inkscape:window-y="35"
     inkscape:window-maximized="0"
     inkscape:current-layer="layer1" />
  <defs
     id="defs1" />
  <g
     inkscape:label="Ebene 1"
     inkscape:groupmode="layer"
     id="layer1">
    <path
       d="m 102.143,108.68066 -0.26016,-0.0406 -0.25559,-0.0634 -0.24895,-0.0858 -0.24042,-0.10743 -0.22999,-0.12825 -0.21769,-0.14806 -0.2038,-0.16674 -0.18828,-0.18411 -0.17125,-0.19998 -0.152848,-0.21437 -0.13336,-0.22701 -0.11276,-0.23792 -0.0913,-0.24694 -0.0691,-0.25405 -0.0464,-0.25915 -0.0233,-0.26222 v -0.26327 l 0.0233,-0.26222 0.0464,-0.25915 0.0691,-0.25405 0.0913,-0.24695 0.11276,-0.23792 0.13336,-0.22701 0.152848,-0.21436 0.17125,-0.19999 0.18828,-0.1841 0.2038,-0.16675 0.21769,-0.14805 0.22999,-0.12826 0.24042,-0.10743 0.24895,-0.0858 0.25559,-0.0634 0.26016,-0.0406 0.26279,-0.0175 0.26324,0.006 0.26174,0.0291 0.25812,0.0521 0.25253,0.0747 0.24492,0.0967 0.2354,0.11799 0.2241,0.13829 0.21093,0.15757 0.19622,0.17557 0.17994,0.19225 0.16223,0.20737 0.14327,0.22091 0.12319,0.23267 0.10209,0.24268 0.0803,0.25071 0.0578,0.25687 0.0348,0.26094 0.0116,0.26302 -0.0116,0.26302 -0.0348,0.26093 -0.0578,0.25687 -0.0803,0.25072 -0.10209,0.24268 -0.12319,0.23272 -0.14327,0.22086 -0.16223,0.20736 -0.17994,0.19225 -0.19622,0.17558 -0.21093,0.15757 -0.2241,0.13828 -0.2354,0.11799 -0.24492,0.0967 -0.25253,0.0747 -0.25812,0.0521 -0.26174,0.029 -0.26324,0.006 z"
       id="path2-3"
       style="fill:none;stroke:#000000;stroke-width:0.0496044;stroke-dasharray:none;stroke-opacity:1" />
    <path
       d="m 23.643001,93.430661 -0.26016,-0.0406 -0.25559,-0.0634 -0.24895,-0.0858 -0.24042,-0.10743 -0.22999,-0.12825 -0.21769,-0.14806 -0.203799,-0.16674 -0.18828,-0.18411 -0.17125,-0.19998 -0.15285,-0.21437 -0.13336,-0.22701 -0.11276,-0.23792 -0.0913,-0.24694 -0.0691,-0.25405 -0.0464,-0.25915 -0.0233,-0.26222 v -0.26327 l 0.0233,-0.26222 0.0464,-0.25915 0.0691,-0.25405 0.0913,-0.24695 0.11276,-0.23792 0.13336,-0.22701 0.15285,-0.21436 0.17125,-0.19999 0.18828,-0.1841 0.203799,-0.16675 0.21769,-0.14805 0.22999,-0.12826 0.24042,-0.10743 0.24895,-0.0858 0.25559,-0.0634 0.26016,-0.0406 0.26279,-0.0175 0.26324,0.006 0.26174,0.0291 0.25812,0.0521 0.25253,0.0747 0.24492,0.0967 0.2354,0.11799 0.2241,0.13829 0.21093,0.15757 0.19622,0.17557 0.17994,0.19225 0.16223,0.20737 0.14327,0.22091 0.12319,0.23267 0.10209,0.24268 0.0803,0.25071 0.0578,0.25687 0.0348,0.26094 0.0116,0.26302 -0.0116,0.26302 -0.0348,0.26093 -0.0578,0.25687 -0.0803,0.25072 -0.10209,0.24268 -0.12319,0.23272 -0.14327,0.22086 -0.16223,0.20736 -0.17994,0.19225 -0.19622,0.17558 -0.21093,0.15757 -0.2241,0.13828 -0.2354,0.11799 -0.24492,0.0967 -0.25253,0.0747 -0.25812,0.0521 -0.26174,0.029 -0.26324,0.006 z"
       id="path2-3-2"
       style="fill:none;stroke:#000000;stroke-width:0.0496044;stroke-dasharray:none;stroke-opacity:1" />
    <path
       d="m 23.86302,91.458886 -0.08672,-0.01353 -0.0852,-0.02113 -0.08298,-0.0286 -0.08014,-0.03581 -0.07667,-0.04275 -0.07256,-0.04935 -0.06793,-0.05557 -0.06276,-0.06136 -0.05709,-0.06665 -0.05095,-0.07145 -0.04445,-0.07566 -0.03759,-0.0793 -0.03044,-0.08231 -0.02303,-0.08467 -0.01546,-0.08637 -0.0077,-0.0874 v -0.08775 l 0.0077,-0.0874 0.01546,-0.08637 0.02303,-0.08467 0.03044,-0.08231 0.03759,-0.0793 0.04445,-0.07566 0.05095,-0.07145 0.05709,-0.06666 0.06276,-0.06136 0.06793,-0.05558 0.07256,-0.04934 0.07667,-0.04275 0.08014,-0.03581 0.08298,-0.0286 0.0852,-0.02113 0.08672,-0.01353 0.08759,-0.0058 0.08774,0.002 0.08725,0.0097 0.08604,0.01736 0.08417,0.0249 0.08164,0.03223 0.07847,0.03933 0.0747,0.04609 0.07031,0.05252 0.06541,0.05852 0.05998,0.06408 0.05408,0.06912 0.04776,0.07363 0.04106,0.07755 0.03403,0.08088 0.02676,0.08356 0.01927,0.08561 0.0116,0.08697 0.0038,0.08766 -0.0038,0.08766 -0.0116,0.08697 -0.01927,0.08561 -0.02676,0.08356 -0.03403,0.08088 -0.04106,0.07757 -0.04776,0.07361 -0.05408,0.06911 -0.05998,0.06408 -0.06541,0.05852 -0.07031,0.05252 -0.0747,0.04609 -0.07847,0.03932 -0.08164,0.03223 -0.08417,0.0249 -0.08604,0.01736 -0.08725,0.0097 -0.08774,0.002 z"
       id="path2-3-2-0"
       style="fill:none;stroke:#000000;stroke-width:0.0165338;stroke-dasharray:none;stroke-opacity:1" />
    <path
       d="m 102.36306,106.70889 -0.0867,-0.0135 -0.0852,-0.0211 -0.083,-0.0286 -0.0801,-0.0358 -0.0767,-0.0427 -0.0726,-0.0494 -0.0679,-0.0556 -0.0628,-0.0614 -0.0571,-0.0667 -0.051,-0.0714 -0.0444,-0.0757 -0.0376,-0.0793 -0.0304,-0.0823 -0.023,-0.0847 -0.0155,-0.0864 -0.008,-0.0874 v -0.0877 l 0.008,-0.0874 0.0155,-0.0864 0.023,-0.0847 0.0304,-0.0823 0.0376,-0.0793 0.0444,-0.0757 0.051,-0.0715 0.0571,-0.0667 0.0628,-0.0614 0.0679,-0.0556 0.0726,-0.0493 0.0767,-0.0427 0.0801,-0.0358 0.083,-0.0286 0.0852,-0.0211 0.0867,-0.0135 0.0876,-0.006 0.0877,0.002 0.0872,0.01 0.086,0.0174 0.0842,0.0249 0.0816,0.0322 0.0785,0.0393 0.0747,0.0461 0.0703,0.0525 0.0654,0.0585 0.06,0.0641 0.0541,0.0691 0.0478,0.0736 0.0411,0.0775 0.034,0.0809 0.0268,0.0836 0.0193,0.0856 0.0116,0.087 0.004,0.0877 -0.004,0.0877 -0.0116,0.087 -0.0193,0.0856 -0.0268,0.0836 -0.034,0.0809 -0.0411,0.0776 -0.0478,0.0736 -0.0541,0.0691 -0.06,0.0641 -0.0654,0.0585 -0.0703,0.0525 -0.0747,0.0461 -0.0785,0.0393 -0.0816,0.0322 -0.0842,0.0249 -0.086,0.0174 -0.0872,0.01 -0.0877,0.002 z"
       id="path2-3-2-0-9"
       style="fill:none;stroke:#000000;stroke-width:0.0165338;stroke-dasharray:none;stroke-opacity:1" />
    <path
       d="m 102.36306,133.70886 -0.0867,-0.0135 -0.0852,-0.0211 -0.083,-0.0286 -0.0801,-0.0358 -0.0767,-0.0427 -0.0726,-0.0494 -0.0679,-0.0556 -0.0628,-0.0614 -0.0571,-0.0667 -0.051,-0.0714 -0.0444,-0.0757 -0.0376,-0.0793 -0.0304,-0.0823 -0.023,-0.0847 -0.0155,-0.0864 -0.008,-0.0874 v -0.0877 l 0.008,-0.0874 0.0155,-0.0864 0.023,-0.0847 0.0304,-0.0823 0.0376,-0.0793 0.0444,-0.0757 0.051,-0.0715 0.0571,-0.0667 0.0628,-0.0614 0.0679,-0.0556 0.0726,-0.0493 0.0767,-0.0427 0.0801,-0.0358 0.083,-0.0286 0.0852,-0.0211 0.0867,-0.0135 0.0876,-0.006 0.0877,0.002 0.0872,0.01 0.086,0.0174 0.0842,0.0249 0.0816,0.0322 0.0785,0.0393 0.0747,0.0461 0.0703,0.0525 0.0654,0.0585 0.06,0.0641 0.0541,0.0691 0.0478,0.0736 0.0411,0.0775 0.034,0.0809 0.0268,0.0836 0.0193,0.0856 0.0116,0.087 0.004,0.0877 -0.004,0.0877 -0.0116,0.087 -0.0193,0.0856 -0.0268,0.0836 -0.034,0.0809 -0.0411,0.0776 -0.0478,0.0736 -0.0541,0.0691 -0.06,0.0641 -0.0654,0.0585 -0.0703,0.0525 -0.0747,0.0461 -0.0785,0.0393 -0.0816,0.0322 -0.0842,0.0249 -0.086,0.0174 -0.0872,0.01 -0.0877,0.002 z"
       id="path2-3-2-0-9-3"
       style="fill:none;stroke:#000000;stroke-width:0.0165338;stroke-dasharray:none;stroke-opacity:1" />
    <path
       d="m 102.143,135.68066 -0.26016,-0.0406 -0.25559,-0.0634 -0.24895,-0.0858 -0.24042,-0.10743 -0.22999,-0.12825 -0.21769,-0.14806 -0.2038,-0.16674 -0.18828,-0.18411 -0.17125,-0.19998 -0.152848,-0.21437 -0.13336,-0.22701 -0.11276,-0.23792 -0.0913,-0.24694 -0.0691,-0.25405 -0.0464,-0.25915 -0.0233,-0.26222 v -0.26327 l 0.0233,-0.26222 0.0464,-0.25915 0.0691,-0.25405 0.0913,-0.24695 0.11276,-0.23792 0.13336,-0.22701 0.152848,-0.21436 0.17125,-0.19999 0.18828,-0.1841 0.2038,-0.16675 0.21769,-0.14805 0.22999,-0.12826 0.24042,-0.10743 0.24895,-0.0858 0.25559,-0.0634 0.26016,-0.0406 0.26279,-0.0175 0.26324,0.006 0.26174,0.0291 0.25812,0.0521 0.25253,0.0747 0.24492,0.0967 0.2354,0.11799 0.2241,0.13829 0.21093,0.15757 0.19622,0.17557 0.17994,0.19225 0.16223,0.20737 0.14327,0.22091 0.12319,0.23267 0.10209,0.24268 0.0803,0.25071 0.0578,0.25687 0.0348,0.26094 0.0116,0.26302 -0.0116,0.26302 -0.0348,0.26093 -0.0578,0.25687 -0.0803,0.25072 -0.10209,0.24268 -0.12319,0.23272 -0.14327,0.22086 -0.16223,0.20736 -0.17994,0.19225 -0.19622,0.17558 -0.21093,0.15757 -0.2241,0.13828 -0.2354,0.11799 -0.24492,0.0967 -0.25253,0.0747 -0.25812,0.0521 -0.26174,0.029 -0.26324,0.006 z"
       id="path2-3-4"
       style="fill:none;stroke:#000000;stroke-width:0.0496044;stroke-dasharray:none;stroke-opacity:1" />
  </g>
</svg>
