<?xml version="1.0" encoding="UTF-8" standalone="no"?>
<!-- Created with Inkscape (http://www.inkscape.org/) -->

<svg
   width="80.500153mm"
   height="44.250309mm"
   viewBox="0 0 80.500153 44.250309"
   version="1.1"
   id="svg1"
   sodipodi:docname="stege-loch.svg"
   inkscape:version="1.4 (e7c3feb1, 2024-10-09)"
   xmlns:inkscape="http://www.inkscape.org/namespaces/inkscape"
   xmlns:sodipodi="http://sodipodi.sourceforge.net/DTD/sodipodi-0.dtd"
   xmlns="http://www.w3.org/2000/svg"
   xmlns:svg="http://www.w3.org/2000/svg">
  <sodipodi:namedview
     id="namedview1"
     pagecolor="#ffffff"
     bordercolor="#000000"
     borderopacity="0.25"
     inkscape:showpageshadow="2"
     inkscape:pageopacity="0.0"
     inkscape:pagecheckerboard="0"
     inkscape:deskcolor="#d1d1d1"
     inkscape:document-units="mm"
     inkscape:zoom="2.4873649"
     inkscape:cx="151.76704"
     inkscape:cy="82.617552"
     inkscape:window-width="1656"
     inkscape:window-height="872"
     inkscape:window-x="0"
     inkscape:window-y="35"
     inkscape:window-maximized="0"
     inkscape:current-layer="svg1" />
  <defs
     id="defs1" />
  <path
     d="M 0.88994,1.985654 0.80322,1.972124 0.71802,1.950994 0.63504,1.922394 0.5549,1.886584 0.47823,1.843834 0.40567,1.794484 0.33774,1.738914 0.27498,1.677554 0.21789,1.610904 0.16694,1.539454 0.12249,1.463794 0.0849,1.384494 0.05446,1.302184 0.03143,1.217514 0.01597,1.131144 0.00827,1.043744 v -0.08775 l 0.0077,-0.0874 0.01546,-0.08637 0.02303,-0.08467 0.03044,-0.08231 0.03759,-0.0793 0.04445,-0.07566 0.05095,-0.07145 0.05709,-0.06666 0.06276,-0.06136 0.06793,-0.05558 0.07256,-0.04934 0.07667,-0.04275 0.08014,-0.03581 0.08298,-0.0286 0.0852,-0.02113 0.08672,-0.01353 0.08759,-0.0058 0.08774,0.002 0.08725,0.0097 0.08604,0.01736 0.08417,0.0249 0.08164,0.03223 0.07847,0.03933 0.0747,0.04609 0.07031,0.05252 0.06541,0.05852 0.05998,0.06408 0.05408,0.06912 0.04776,0.07363 0.04106,0.07755 0.03403,0.08088 0.02676,0.08356 0.01927,0.08561 0.0116,0.08697 0.0038,0.08766 -0.0038,0.08766 -0.0116,0.08697 -0.01927,0.08561 -0.02676,0.08356 -0.03403,0.08088 -0.04106,0.07757 -0.04776,0.07361 -0.05408,0.06911 -0.05998,0.06408 -0.06541,0.05852 -0.07031,0.05252 -0.0747,0.04609 -0.07847,0.03932 -0.08164,0.03223 -0.08417,0.0249 -0.08604,0.01736 -0.08725,0.0097 -0.08774,0.002 z"
     id="path2-3-2-0"
     style="fill:none;stroke:#000000;stroke-width:0.0165338;stroke-dasharray:none;stroke-opacity:1" />
  <path
     d="m 79.38998,17.235658 -0.0867,-0.0135 -0.0852,-0.0211 -0.083,-0.0286 -0.0801,-0.0358 -0.0767,-0.0427 -0.0726,-0.0494 -0.0679,-0.0556 -0.0628,-0.0614 -0.0571,-0.0667 -0.051,-0.0714 -0.0444,-0.0757 -0.0376,-0.0793 -0.0304,-0.0823 -0.023,-0.0847 -0.0155,-0.0864 -0.008,-0.0874 v -0.0877 l 0.008,-0.0874 0.0155,-0.0864 0.023,-0.0847 0.0304,-0.0823 0.0376,-0.0793 0.0444,-0.0757 0.051,-0.0715 0.0571,-0.0667 0.0628,-0.0614 0.0679,-0.0556 0.0726,-0.0493 0.0767,-0.0427 0.0801,-0.0358 0.083,-0.0286 0.0852,-0.0211 0.0867,-0.0135 0.0876,-0.006 0.0877,0.002 0.0872,0.01 0.086,0.0174 0.0842,0.0249 0.0816,0.0322 0.0785,0.0393 0.0747,0.0461 0.0703,0.0525 0.0654,0.0585 0.06,0.0641 0.0541,0.0691 0.0478,0.0736 0.0411,0.0775 0.034,0.0809 0.0268,0.0836 0.0193,0.0856 0.0116,0.087 0.004,0.0877 -0.004,0.0877 -0.0116,0.087 -0.0193,0.0856 -0.0268,0.0836 -0.034,0.0809 -0.0411,0.0776 -0.0478,0.0736 -0.0541,0.0691 -0.06,0.0641 -0.0654,0.0585 -0.0703,0.0525 -0.0747,0.0461 -0.0785,0.0393 -0.0816,0.0322 -0.0842,0.0249 -0.086,0.0174 -0.0872,0.01 -0.0877,0.002 z"
     id="path2-3-2-0-9"
     style="fill:none;stroke:#000000;stroke-width:0.0165338;stroke-dasharray:none;stroke-opacity:1" />
  <path
     d="m 79.38998,44.735973 -0.0867,-0.0135 -0.0852,-0.0211 -0.083,-0.0286 -0.0801,-0.0358 -0.0767,-0.0427 -0.0726,-0.0494 -0.0679,-0.0556 -0.0628,-0.0614 -0.0571,-0.0667 -0.051,-0.0714 -0.0444,-0.0757 -0.0376,-0.0793 -0.0304,-0.0823 -0.023,-0.0847 -0.0155,-0.0864 -0.008,-0.0874 v -0.0877 l 0.008,-0.0874 0.0155,-0.0864 0.023,-0.0847 0.0304,-0.0823 0.0376,-0.0793 0.0444,-0.0757 0.051,-0.0715 0.0571,-0.0667 0.0628,-0.0614 0.0679,-0.0556 0.0726,-0.0493 0.0767,-0.0427 0.0801,-0.0358 0.083,-0.0286 0.0852,-0.0211 0.0867,-0.0135 0.0876,-0.006 0.0877,0.002 0.0872,0.01 0.086,0.0174 0.0842,0.0249 0.0816,0.0322 0.0785,0.0393 0.0747,0.0461 0.0703,0.0525 0.0654,0.0585 0.06,0.0641 0.0541,0.0691 0.0478,0.0736 0.0411,0.0775 0.034,0.0809 0.0268,0.0836 0.0193,0.0856 0.0116,0.087 0.004,0.0877 -0.004,0.0877 -0.0116,0.087 -0.0193,0.0856 -0.0268,0.0836 -0.034,0.0809 -0.0411,0.0776 -0.0478,0.0736 -0.0541,0.0691 -0.06,0.0641 -0.0654,0.0585 -0.0703,0.0525 -0.0747,0.0461 -0.0785,0.0393 -0.0816,0.0322 -0.0842,0.0249 -0.086,0.0174 -0.0872,0.01 -0.0877,0.002 z"
     id="path2-3-2-0-9-3"
     style="fill:none;stroke:#000000;stroke-width:0.0165338;stroke-dasharray:none;stroke-opacity:1" />
</svg>
