<?xml version="1.0" encoding="UTF-8" standalone="no"?>
<!-- Created with Inkscape (http://www.inkscape.org/) -->

<svg
   width="84.500031mm"
   height="48.250412mm"
   viewBox="0 0 84.500031 48.250412"
   version="1.1"
   id="svg1"
   sodipodi:docname="stege-voll.svg"
   inkscape:version="1.4 (e7c3feb1, 2024-10-09)"
   xmlns:inkscape="http://www.inkscape.org/namespaces/inkscape"
   xmlns:sodipodi="http://sodipodi.sourceforge.net/DTD/sodipodi-0.dtd"
   xmlns="http://www.w3.org/2000/svg"
   xmlns:svg="http://www.w3.org/2000/svg">
  <sodipodi:namedview
     id="namedview1"
     pagecolor="#ffffff"
     bordercolor="#000000"
     borderopacity="0.25"
     inkscape:showpageshadow="2"
     inkscape:pageopacity="0.0"
     inkscape:pagecheckerboard="0"
     inkscape:deskcolor="#d1d1d1"
     inkscape:document-units="mm"
     inkscape:zoom="1.6130201"
     inkscape:cx="160.25838"
     inkscape:cy="90.203462"
     inkscape:window-width="1560"
     inkscape:window-height="846"
     inkscape:window-x="0"
     inkscape:window-y="35"
     inkscape:window-maximized="0"
     inkscape:current-layer="svg1" />
  <defs
     id="defs1" />
  <path
     d="m 81.17,21.207656 -0.26016,-0.0406 -0.25559,-0.0634 -0.24895,-0.0858 -0.24042,-0.10743 -0.22999,-0.12825 -0.21769,-0.14806 -0.2038,-0.16674 -0.18828,-0.18411 -0.17125,-0.19998 -0.152848,-0.21437 -0.13336,-0.22701 -0.11276,-0.23792 -0.0913,-0.24694 -0.0691,-0.25405 -0.0464,-0.25915 -0.0233,-0.26222 v -0.26327 l 0.0233,-0.26222 0.0464,-0.25915 0.0691,-0.25405 0.0913,-0.24695 0.11276,-0.23792 0.13336,-0.22701 0.152848,-0.21436 0.17125,-0.19999 0.18828,-0.1841 0.2038,-0.16675 0.21769,-0.14805 0.22999,-0.12826 0.24042,-0.10743 0.24895,-0.0858 0.25559,-0.0634 0.26016,-0.0406 0.26279,-0.0175 0.26324,0.006 0.26174,0.0291 0.25812,0.0521 0.25253,0.0747 0.24492,0.0967 0.2354,0.11799 0.2241,0.13829 0.21093,0.15757 0.19622,0.17557 0.17994,0.19225 0.16223,0.20737 0.14327,0.22091 0.12319,0.23267 0.10209,0.24268 0.0803,0.25071 0.0578,0.25687 0.0348,0.26094 0.0116,0.26302 -0.0116,0.26302 -0.0348,0.26093 -0.0578,0.25687 -0.0803,0.25072 -0.10209,0.24268 -0.12319,0.23272 -0.14327,0.22086 -0.16223,0.20736 -0.17994,0.19225 -0.19622,0.17558 -0.21093,0.15757 -0.2241,0.13828 -0.2354,0.11799 -0.24492,0.0967 -0.25253,0.0747 -0.25812,0.0521 -0.26174,0.029 -0.26324,0.006 z"
     id="path2-3"
     style="fill:none;stroke:#000000;stroke-width:0.0496044;stroke-dasharray:none;stroke-opacity:1" />
  <path
     d="m 2.670001,5.957657 -0.26016,-0.0406 -0.25559,-0.0634 -0.24895,-0.0858 -0.24042,-0.10743 -0.22999,-0.12825 -0.21769,-0.14806 -0.203799,-0.16674 -0.18828,-0.18411 -0.17125,-0.19998 -0.15285,-0.21437 -0.13336,-0.22701 -0.11276,-0.23792 -0.0913,-0.24694 -0.0691,-0.25405 -0.0464,-0.25915 -0.0233,-0.26222 v -0.26327 l 0.0233,-0.26222 0.0464,-0.25915 0.0691,-0.25405 0.0913,-0.24695 0.11276,-0.23792 0.13336,-0.22701 0.15285,-0.21436 0.17125,-0.19999 0.18828,-0.1841 0.203799,-0.16675 0.21769,-0.14805 0.22999,-0.12826 0.24042,-0.10743 0.24895,-0.0858 0.25559,-0.0634 0.26016,-0.0406 0.26279,-0.0175 0.26324,0.006 0.26174,0.0291 0.25812,0.0521 0.25253,0.0747 0.24492,0.0967 0.2354,0.11799 0.2241,0.13829 0.21093,0.15757 0.19622,0.17557 0.17994,0.19225 0.16223,0.20737 0.14327,0.22091 0.12319,0.23267 0.10209,0.24268 0.0803,0.25071 0.0578,0.25687 0.0348,0.26094 0.0116,0.26302 -0.0116,0.26302 -0.0348,0.26093 -0.0578,0.25687 -0.0803,0.25072 -0.10209,0.24268 -0.12319,0.23272 -0.14327,0.22086 -0.16223,0.20736 -0.17994,0.19225 -0.19622,0.17558 -0.21093,0.15757 -0.2241,0.13828 -0.2354,0.11799 -0.24492,0.0967 -0.25253,0.0747 -0.25812,0.0521 -0.26174,0.029 -0.26324,0.006 z"
     id="path2-3-2"
     style="fill:none;stroke:#000000;stroke-width:0.0496044;stroke-dasharray:none;stroke-opacity:1" />
  <path
     d="m 81.17,48.707661 -0.26016,-0.0406 -0.25559,-0.0634 -0.24895,-0.0858 -0.24042,-0.10743 -0.22999,-0.12825 -0.21769,-0.14806 -0.2038,-0.16674 -0.18828,-0.18411 -0.17125,-0.19998 -0.152848,-0.21437 -0.13336,-0.22701 -0.11276,-0.23792 -0.0913,-0.24694 -0.0691,-0.25405 -0.0464,-0.25915 -0.0233,-0.26222 v -0.26327 l 0.0233,-0.26222 0.0464,-0.25915 0.0691,-0.25405 0.0913,-0.24695 0.11276,-0.23792 0.13336,-0.22701 0.152848,-0.21436 0.17125,-0.19999 0.18828,-0.1841 0.2038,-0.16675 0.21769,-0.14805 0.22999,-0.12826 0.24042,-0.10743 0.24895,-0.0858 0.25559,-0.0634 0.26016,-0.0406 0.26279,-0.0175 0.26324,0.006 0.26174,0.0291 0.25812,0.0521 0.25253,0.0747 0.24492,0.0967 0.2354,0.11799 0.2241,0.13829 0.21093,0.15757 0.19622,0.17557 0.17994,0.19225 0.16223,0.20737 0.14327,0.22091 0.12319,0.23267 0.10209,0.24268 0.0803,0.25071 0.0578,0.25687 0.0348,0.26094 0.0116,0.26302 -0.0116,0.26302 -0.0348,0.26093 -0.0578,0.25687 -0.0803,0.25072 -0.10209,0.24268 -0.12319,0.23272 -0.14327,0.22086 -0.16223,0.20736 -0.17994,0.19225 -0.19622,0.17558 -0.21093,0.15757 -0.2241,0.13828 -0.2354,0.11799 -0.24492,0.0967 -0.25253,0.0747 -0.25812,0.0521 -0.26174,0.029 -0.26324,0.006 z"
     id="path2-3-4"
     style="fill:none;stroke:#000000;stroke-width:0.0496044;stroke-dasharray:none;stroke-opacity:1" />
</svg>
