<?xml version="1.0" encoding="UTF-8" standalone="no"?>
<svg
   width="54mm"
   height="74mm"
   viewBox="-27 -37 54 74"
   version="1.1"
   id="svg1"
   sodipodi:docname="WaveshareBottomModified.svg"
   inkscape:version="1.4 (e7c3feb1, 2024-10-09)"
   xmlns:inkscape="http://www.inkscape.org/namespaces/inkscape"
   xmlns:sodipodi="http://sodipodi.sourceforge.net/DTD/sodipodi-0.dtd"
   xmlns="http://www.w3.org/2000/svg"
   xmlns:svg="http://www.w3.org/2000/svg"
   xmlns:rdf="http://www.w3.org/1999/02/22-rdf-syntax-ns#"
   xmlns:cc="http://creativecommons.org/ns#"
   xmlns:dc="http://purl.org/dc/elements/1.1/">
  <defs
     id="defs1" />
  <sodipodi:namedview
     id="namedview1"
     pagecolor="#ffffff"
     bordercolor="#000000"
     borderopacity="0.25"
     inkscape:showpageshadow="2"
     inkscape:pageopacity="0.0"
     inkscape:pagecheckerboard="0"
     inkscape:deskcolor="#d1d1d1"
     inkscape:document-units="mm"
     showgrid="false"
     inkscape:zoom="1.9677394"
     inkscape:cx="72.926325"
     inkscape:cy="138.73789"
     inkscape:window-width="1424"
     inkscape:window-height="825"
     inkscape:window-x="0"
     inkscape:window-y="35"
     inkscape:window-maximized="0"
     inkscape:current-layer="svg1" />
  <title
     id="title1">OpenSCAD Model</title>
  <path
     d="m -19.556982,-26.250067 -0.312163,-0.03405 -0.306563,-0.06749 -0.297564,-0.10055 -0.284966,-0.131979 -0.268967,-0.162029 -0.24997,-0.190473 -0.227972,-0.216109 -0.203175,-0.239742 -0.176179,-0.26017 -0.147182,-0.277997 -0.116186,-0.292018 -0.08399,-0.303031 -0.05079,-0.310245 -0.017,-0.314046 0.017,-0.314047 0.05079,-0.310245 0.08399,-0.303031 0.116186,-0.292018 0.147182,-0.277997 0.176179,-0.26017 0.203175,-0.239742 0.227972,-0.216109 0.24997,-0.19027 0.268967,-0.162232 0.284966,-0.131979 0.297564,-0.100347 0.306563,-0.0677 0.312163,-0.03405 h 0.313962 l 0.312162,0.03405 0.306563,0.0677 0.297564,0.100347 0.284966,0.131979 0.268967,0.162232 0.24997,0.19027 0.227973,0.216109 0.203175,0.239742 0.176379,0.26017 0.146982,0.277997 0.116186,0.292018 0.08399,0.303031 0.05079,0.310245 0.017,0.314047 -0.017,0.314046 -0.05079,0.310245 -0.08399,0.303031 -0.116186,0.292018 -0.146982,0.277997 -0.176379,0.26017 -0.203175,0.239742 -0.227973,0.216109 -0.24997,0.190473 -0.268967,0.162029 -0.284966,0.131979 -0.297564,0.10055 -0.306563,0.06749 -0.312162,0.03405 z"
     id="path3-9"
     style="fill:none;stroke:#000000;stroke-width:0.01;stroke-dasharray:none;stroke-opacity:1" />
  <path
     d="m 19.243019,-26.250067 -0.312163,-0.03405 -0.306563,-0.06749 -0.297564,-0.10055 -0.284966,-0.131979 -0.268967,-0.162029 -0.24997,-0.190473 -0.227972,-0.216109 -0.203175,-0.239742 -0.176179,-0.26017 -0.147182,-0.277997 -0.116186,-0.292018 -0.08399,-0.303031 -0.05079,-0.310245 -0.017,-0.314046 0.017,-0.314047 0.05079,-0.310245 0.08399,-0.303031 0.116186,-0.292018 0.147182,-0.277997 0.176179,-0.26017 0.203175,-0.239742 0.227972,-0.216109 0.24997,-0.19027 0.268967,-0.162232 0.284966,-0.131979 0.297564,-0.100347 0.306563,-0.0677 0.312163,-0.03405 h 0.313962 l 0.312162,0.03405 0.306563,0.0677 0.297564,0.100347 0.284966,0.131979 0.268967,0.162232 0.24997,0.19027 0.227973,0.216109 0.203175,0.239742 0.176379,0.26017 0.146982,0.277997 0.116186,0.292018 0.08399,0.303031 0.05079,0.310245 0.017,0.314047 -0.017,0.314046 -0.05079,0.310245 -0.08399,0.303031 -0.116186,0.292018 -0.146982,0.277997 -0.176379,0.26017 -0.203175,0.239742 -0.227973,0.216109 -0.24997,0.190473 -0.268967,0.162029 -0.284966,0.131979 -0.297564,0.10055 -0.306563,0.06749 -0.312162,0.03405 z"
     id="path3-9-9"
     style="fill:none;stroke:#000000;stroke-width:0.01;stroke-dasharray:none;stroke-opacity:1" />
  <path
     d="m 19.243019,32.049933 -0.312163,-0.03405 -0.306563,-0.06749 -0.297564,-0.10055 -0.284966,-0.131979 -0.268967,-0.162029 -0.24997,-0.190473 -0.227972,-0.216109 -0.203175,-0.239742 -0.176179,-0.26017 -0.147182,-0.277997 -0.116186,-0.292018 -0.08399,-0.303031 -0.05079,-0.310245 -0.017,-0.314046 0.017,-0.314047 0.05079,-0.310245 0.08399,-0.303031 0.116186,-0.292018 0.147182,-0.277997 0.176179,-0.26017 0.203175,-0.239742 0.227972,-0.216109 0.24997,-0.19027 0.268967,-0.162232 0.284966,-0.131979 0.297564,-0.100347 0.306563,-0.0677 0.312163,-0.03405 h 0.313962 l 0.312162,0.03405 0.306563,0.0677 0.297564,0.100347 0.284966,0.131979 0.268967,0.162232 0.24997,0.19027 0.227973,0.216109 0.203175,0.239742 0.176379,0.26017 0.146982,0.277997 0.116186,0.292018 0.08399,0.303031 0.05079,0.310245 0.017,0.314047 -0.017,0.314046 -0.05079,0.310245 -0.08399,0.303031 -0.116186,0.292018 -0.146982,0.277997 -0.176379,0.26017 -0.203175,0.239742 -0.227973,0.216109 -0.24997,0.190473 -0.268967,0.162029 -0.284966,0.131979 -0.297564,0.10055 -0.306563,0.06749 -0.312162,0.03405 z"
     id="path3-9-9-3"
     style="fill:none;stroke:#000000;stroke-width:0.01;stroke-dasharray:none;stroke-opacity:1" />
  <path
     d="m -19.556981,32.049933 -0.312163,-0.03405 -0.306563,-0.06749 -0.297564,-0.10055 -0.284966,-0.131979 -0.268967,-0.162029 -0.24997,-0.190473 -0.227972,-0.216109 -0.203175,-0.239742 -0.176179,-0.26017 -0.147182,-0.277997 -0.116186,-0.292018 -0.08399,-0.303031 -0.05079,-0.310245 -0.017,-0.314046 0.017,-0.314047 0.05079,-0.310245 0.08399,-0.303031 0.116186,-0.292018 0.147182,-0.277997 0.176179,-0.26017 0.203175,-0.239742 0.227972,-0.216109 0.24997,-0.19027 0.268967,-0.162232 0.284966,-0.131979 0.297564,-0.100347 0.306563,-0.0677 0.312163,-0.03405 h 0.313962 l 0.312162,0.03405 0.306563,0.0677 0.297564,0.100347 0.284966,0.131979 0.268967,0.162232 0.24997,0.19027 0.227973,0.216109 0.203175,0.239742 0.176379,0.26017 0.146982,0.277997 0.116186,0.292018 0.08399,0.303031 0.05079,0.310245 0.017,0.314047 -0.017,0.314046 -0.05079,0.310245 -0.08399,0.303031 -0.116186,0.292018 -0.146982,0.277997 -0.176379,0.26017 -0.203175,0.239742 -0.227973,0.216109 -0.24997,0.190473 -0.268967,0.162029 -0.284966,0.131979 -0.297564,0.10055 -0.306563,0.06749 -0.312162,0.03405 z"
     id="path3-9-9-3-8"
     style="fill:none;stroke:#000000;stroke-width:0.01;stroke-dasharray:none;stroke-opacity:1" />
  <metadata
     id="metadata85">
    <rdf:RDF>
      <cc:Work
         rdf:about="">
        <dc:title>OpenSCAD Model</dc:title>
      </cc:Work>
    </rdf:RDF>
  </metadata>
</svg>
