<?xml version="1.0" encoding="UTF-8" standalone="no"?>
<!-- Created with Inkscape (http://www.inkscape.org/) -->

<svg
   width="95.690239mm"
   height="89.732155mm"
   viewBox="0 0 95.690239 89.732155"
   version="1.1"
   id="svg1"
   xml:space="preserve"
   inkscape:version="1.4 (e7c3feb1, 2024-10-09)"
   sodipodi:docname="Commodore.svg"
   xmlns:inkscape="http://www.inkscape.org/namespaces/inkscape"
   xmlns:sodipodi="http://sodipodi.sourceforge.net/DTD/sodipodi-0.dtd"
   xmlns="http://www.w3.org/2000/svg"
   xmlns:svg="http://www.w3.org/2000/svg"><sodipodi:namedview
     id="namedview1"
     pagecolor="#ffffff"
     bordercolor="#000000"
     borderopacity="0.25"
     inkscape:showpageshadow="2"
     inkscape:pageopacity="0.0"
     inkscape:pagecheckerboard="0"
     inkscape:deskcolor="#d1d1d1"
     inkscape:document-units="mm"
     inkscape:zoom="0.050961003"
     inkscape:cx="-529.81689"
     inkscape:cy="264.90845"
     inkscape:window-width="1232"
     inkscape:window-height="648"
     inkscape:window-x="0"
     inkscape:window-y="35"
     inkscape:window-maximized="0"
     inkscape:current-layer="layer1"><inkscape:page
       x="-3.1813061e-13"
       y="0"
       width="95.690247"
       height="89.732155"
       id="page2"
       margin="0"
       bleed="0" /></sodipodi:namedview><defs
     id="defs1" /><g
     inkscape:label="Ebene 1"
     inkscape:groupmode="layer"
     id="layer1"
     transform="translate(-57.154874,-58.767859)"><path
       style="fill:#ffffff;fill-opacity:1"
       d="m 96.428035,148.21536 c -19.17382,-2.45639 -34.57745,-16.70996 -38.65713,-35.77092 -0.54145,-2.52972 -0.61603,-3.59888 -0.61603,-8.83129 0,-5.232415 0.0746,-6.301575 0.61603,-8.831295 3.95119,-18.46066 18.34208,-32.38416 36.71563,-35.52321 5.20741,-0.88966 13.595805,-0.5365 18.760015,0.78983 l 1.32292,0.33976 0.0692,10.63225 c 0.0472,7.25846 -0.0186,10.63224 -0.20724,10.63224 -0.152,0 -0.86521,-0.29838 -1.58489,-0.66307 -3.66202,-1.85569 -6.12109,-2.38101 -11.10931,-2.37326 -4.588705,0.007 -6.567845,0.41316 -10.204905,2.09358 -6.56204,3.03185 -11.79217,9.2479 -13.64291,16.21471 -0.70515,2.65444 -0.95354,8.042485 -0.50071,10.861645 1.42471,8.86984 8.14817,16.58549 16.95896,19.46162 5.62188,1.83517 12.582335,1.44178 17.891445,-1.01119 1.10444,-0.51027 2.11035,-0.92777 2.23537,-0.92777 0.12503,0 0.22732,4.80436 0.22732,10.67635 v 10.67636 l -1.65364,0.44214 c -4.83054,1.29156 -11.65313,1.74784 -16.620075,1.11152 z m 19.067475,-33.88658 v -8.59896 h 10.42193 10.42194 l 5.91523,6.15156 c 3.25337,3.38336 6.89788,7.17134 8.0989,8.41774 1.20102,1.24639 2.18367,2.34772 2.18367,2.44739 0,0.0997 -8.33437,0.18123 -18.52083,0.18123 h -18.52084 z m 0,-21.431265 v -8.59895 h 18.67481 18.67481 l -2.46908,2.62252 c -1.35799,1.44239 -5.02892,5.30355 -8.15762,8.58035 l -5.68854,5.957825 -10.51719,0.0186 -10.51719,0.0186 z"
       id="path1" /></g></svg>
